<svg width="48" height="48" viewBox="0 0 48 48" fill="none" xmlns="http://www.w3.org/2000/svg">
<path d="M17.4983 18.8946C19.5129 13.9672 24.3533 10.5 30 10.5C37.4558 10.5 43.5 16.5442 43.5 24H46.5C46.5 14.8873 39.1127 7.5 30 7.5C23.536 7.5 17.9431 11.2167 15.2364 16.6249C14.6688 16.5426 14.089 16.5 13.5 16.5C6.87258 16.5 1.5 21.8726 1.5 28.5C1.5 35.2219 6.97036 40 13.5 40H24V37H13.5C8.43166 37 4.5 33.3761 4.5 28.5C4.5 25.544 5.92505 22.9209 8.12562 21.2802L8 21.5C9.37466 20.1253 13.2689 20.0105 13.5253 23.0796C13.5085 23.3844 13.5 23.6912 13.5 24H16.5C16.5 22.1904 16.8552 20.4676 17.4983 18.8946Z" fill="black"/>
<path d="M30 36.6213L27.8787 34.5L36 26.3787L44.1213 34.5L42 36.6213L40.0607 34.682C39.1157 33.737 37.5 34.4063 37.5 35.7426L37.5 44.5H34.5L34.5 35.7426C34.5 34.4073 32.8868 33.7381 31.9415 34.6798L30 36.6213Z" fill="black"/>
</svg>